<?xml version="1.0" encoding="UTF-8" standalone="no"?>
<!DOCTYPE svg PUBLIC "-//W3C//DTD SVG 1.1//EN"
 "http://www.w3.org/Graphics/SVG/1.1/DTD/svg11.dtd">
<!-- Generated by graphviz version 2.42.4 (0)
 -->
<!-- Title: G Pages: 1 -->
<svg width="463pt" height="144pt"
 viewBox="0.00 0.00 462.89 143.80" xmlns="http://www.w3.org/2000/svg" xmlns:xlink="http://www.w3.org/1999/xlink">
<g id="graph0" class="graph" transform="scale(1 1) rotate(0) translate(14.4 129.4)">
<title>G</title>
<!-- s -->
<g id="node1" class="node">
<title>s</title>
<path fill="none" stroke="black" d="M74,-75C74,-75 12,-75 12,-75 6,-75 0,-69 0,-63 0,-63 0,-51 0,-51 0,-45 6,-39 12,-39 12,-39 74,-39 74,-39 80,-39 86,-45 86,-51 86,-51 86,-63 86,-63 86,-69 80,-75 74,-75"/>
<text text-anchor="middle" x="43" y="-53.3" font-family="Arial" font-size="14.00">student:s02</text>
</g>
<!-- b -->
<g id="node2" class="node">
<title>b</title>
<ellipse fill="none" stroke="black" cx="238.95" cy="-57" rx="27.9" ry="18"/>
<text text-anchor="middle" x="238.95" y="-53.3" font-family="Arial" font-size="14.00">_:b5</text>
</g>
<!-- s&#45;&gt;b -->
<g id="edge1" class="edge">
<title>s&#45;&gt;b</title>
<path fill="none" stroke="black" d="M86.08,-57C120.26,-57 168.01,-57 200.79,-57"/>
<polygon fill="black" stroke="black" points="200.87,-60.5 210.87,-57 200.87,-53.5 200.87,-60.5"/>
<text text-anchor="middle" x="148.5" y="-60.8" font-family="Arial" font-size="14.00">ex:address</text>
</g>
<!-- city -->
<g id="node3" class="node">
<title>city</title>
<ellipse fill="none" stroke="black" cx="398.99" cy="-97" rx="28.7" ry="18"/>
<text text-anchor="middle" x="398.99" y="-93.3" font-family="Arial" font-size="14.00">Vigo</text>
</g>
<!-- b&#45;&gt;city -->
<g id="edge2" class="edge">
<title>b&#45;&gt;city</title>
<path fill="none" stroke="black" d="M265.34,-63.43C291.57,-70.06 332.71,-80.48 362.23,-87.95"/>
<polygon fill="black" stroke="black" points="361.58,-91.4 372.14,-90.46 363.3,-84.61 361.58,-91.4"/>
<text text-anchor="middle" x="315.4" y="-83.8" font-family="Arial" font-size="14.00">ex:city</text>
</g>
<!-- cp -->
<g id="node4" class="node">
<title>cp</title>
<ellipse fill="none" stroke="black" cx="398.99" cy="-18" rx="35.19" ry="18"/>
<text text-anchor="middle" x="398.99" y="-14.3" font-family="Arial" font-size="14.00">36201</text>
</g>
<!-- b&#45;&gt;cp -->
<g id="edge3" class="edge">
<title>b&#45;&gt;cp</title>
<path fill="none" stroke="black" stroke-dasharray="5,2" d="M259.95,-44.8C270.31,-39.05 283.39,-32.67 295.9,-29 314.43,-23.56 335.56,-20.75 353.77,-19.32"/>
<polygon fill="black" stroke="black" points="354.09,-22.81 363.83,-18.65 353.62,-15.83 354.09,-22.81"/>
<text text-anchor="middle" x="315.4" y="-32.8" font-family="Arial" font-size="14.00">?</text>
</g>
</g>
</svg>
