<?xml version="1.0" encoding="UTF-8" standalone="no"?>
<!DOCTYPE svg PUBLIC "-//W3C//DTD SVG 1.1//EN"
 "http://www.w3.org/Graphics/SVG/1.1/DTD/svg11.dtd">
<!-- Generated by graphviz version 2.43.0 (0)
 -->
<!-- Title: R4xB Pages: 1 -->
<svg width="387pt" height="226pt"
 viewBox="0.00 0.00 386.60 225.60" xmlns="http://www.w3.org/2000/svg" xmlns:xlink="http://www.w3.org/1999/xlink">
<g id="graph0" class="graph" transform="scale(1 1) rotate(0) translate(10.8 214.8)">
<title>R4xB</title>
<!-- seq -->
<g id="node1" class="node">
<title>seq</title>
<path fill="#e8f1ff" stroke="#3d6fb6" d="M104,-121C104,-121 12,-121 12,-121 6,-121 0,-115 0,-109 0,-109 0,-97 0,-97 0,-91 6,-85 12,-85 12,-85 104,-85 104,-85 110,-85 116,-91 116,-97 116,-97 116,-109 116,-109 116,-115 110,-121 104,-121"/>
<text text-anchor="middle" x="58" y="-99.3" font-family="Arial" font-size="14.00">ex:semester/first</text>
</g>
<!-- type -->
<g id="node2" class="node">
<title>type</title>
<path fill="#e8f1ff" stroke="#3d6fb6" d="M299.5,-204C299.5,-204 263.5,-204 263.5,-204 257.5,-204 251.5,-198 251.5,-192 251.5,-192 251.5,-180 251.5,-180 251.5,-174 257.5,-168 263.5,-168 263.5,-168 299.5,-168 299.5,-168 305.5,-168 311.5,-174 311.5,-180 311.5,-180 311.5,-192 311.5,-192 311.5,-198 305.5,-204 299.5,-204"/>
<text text-anchor="middle" x="281.5" y="-182.3" font-family="Arial" font-size="14.00">rdf:Seq</text>
</g>
<!-- seq&#45;&gt;type -->
<g id="edge1" class="edge">
<title>seq&#45;&gt;type</title>
<path fill="none" stroke="#4c6078" d="M98.87,-121.16C110.16,-126.13 122.51,-131.41 134,-136 169.99,-150.37 211.92,-164.41 241.67,-173.94"/>
<polygon fill="#4c6078" stroke="#4c6078" points="240.68,-177.3 251.27,-176.99 242.8,-170.63 240.68,-177.3"/>
<text text-anchor="middle" x="157" y="-155.8" font-family="Arial" font-size="14.00">rdf:type</text>
</g>
<!-- c01 -->
<g id="node3" class="node">
<title>c01</title>
<path fill="#e8f1ff" stroke="#3d6fb6" d="M326,-150C326,-150 237,-150 237,-150 231,-150 225,-144 225,-138 225,-138 225,-124 225,-124 225,-118 231,-112 237,-112 237,-112 326,-112 326,-112 332,-112 338,-118 338,-124 338,-124 338,-138 338,-138 338,-144 332,-150 326,-150"/>
<text text-anchor="middle" x="281.5" y="-134.8" font-family="Arial" font-size="14.00">course:c01</text>
<text text-anchor="middle" x="281.5" y="-119.8" font-family="Arial" font-size="14.00">Web Semántica</text>
</g>
<!-- seq&#45;&gt;c01 -->
<g id="edge2" class="edge">
<title>seq&#45;&gt;c01</title>
<path fill="none" stroke="#4c6078" d="M116.04,-110.21C146.23,-114.03 183.44,-118.73 214.83,-122.7"/>
<polygon fill="#4c6078" stroke="#4c6078" points="214.44,-126.18 224.8,-123.96 215.32,-119.23 214.44,-126.18"/>
<text text-anchor="middle" x="157" y="-120.8" font-family="Arial" font-size="14.00">rdf:_1</text>
</g>
<!-- c02 -->
<g id="node4" class="node">
<title>c02</title>
<path fill="#e8f1ff" stroke="#3d6fb6" d="M353,-94C353,-94 210,-94 210,-94 204,-94 198,-88 198,-82 198,-82 198,-68 198,-68 198,-62 204,-56 210,-56 210,-56 353,-56 353,-56 359,-56 365,-62 365,-68 365,-68 365,-82 365,-82 365,-88 359,-94 353,-94"/>
<text text-anchor="middle" x="281.5" y="-78.8" font-family="Arial" font-size="14.00">course:c02</text>
<text text-anchor="middle" x="281.5" y="-63.8" font-family="Arial" font-size="14.00">Aprendizaje Automático I</text>
</g>
<!-- seq&#45;&gt;c02 -->
<g id="edge3" class="edge">
<title>seq&#45;&gt;c02</title>
<path fill="none" stroke="#4c6078" d="M116.32,-95.3C122.29,-94.51 128.27,-93.73 134,-93 151.32,-90.78 169.79,-88.47 187.58,-86.27"/>
<polygon fill="#4c6078" stroke="#4c6078" points="188.47,-89.69 197.97,-84.99 187.61,-82.74 188.47,-89.69"/>
<text text-anchor="middle" x="157" y="-96.8" font-family="Arial" font-size="14.00">rdf:_2</text>
</g>
<!-- c03 -->
<g id="node5" class="node">
<title>c03</title>
<path fill="#e8f1ff" stroke="#3d6fb6" d="M333.5,-38C333.5,-38 229.5,-38 229.5,-38 223.5,-38 217.5,-32 217.5,-26 217.5,-26 217.5,-12 217.5,-12 217.5,-6 223.5,0 229.5,0 229.5,0 333.5,0 333.5,0 339.5,0 345.5,-6 345.5,-12 345.5,-12 345.5,-26 345.5,-26 345.5,-32 339.5,-38 333.5,-38"/>
<text text-anchor="middle" x="281.5" y="-22.8" font-family="Arial" font-size="14.00">course:c03</text>
<text text-anchor="middle" x="281.5" y="-7.8" font-family="Arial" font-size="14.00">Sistemas Digitales</text>
</g>
<!-- seq&#45;&gt;c03 -->
<g id="edge4" class="edge">
<title>seq&#45;&gt;c03</title>
<path fill="none" stroke="#4c6078" d="M95.64,-84.89C107.72,-79.18 121.32,-73.06 134,-68 157.97,-58.43 184.63,-49.13 208.56,-41.25"/>
<polygon fill="#4c6078" stroke="#4c6078" points="209.86,-44.51 218.28,-38.08 207.68,-37.86 209.86,-44.51"/>
<text text-anchor="middle" x="157" y="-71.8" font-family="Arial" font-size="14.00">rdf:_3</text>
</g>
</g>
</svg>
