<?xml version="1.0" encoding="UTF-8" standalone="no"?>
<!DOCTYPE svg PUBLIC "-//W3C//DTD SVG 1.1//EN"
 "http://www.w3.org/Graphics/SVG/1.1/DTD/svg11.dtd">
<!-- Generated by graphviz version 2.42.4 (0)
 -->
<!-- Title: G Pages: 1 -->
<svg width="578pt" height="119pt"
 viewBox="0.00 0.00 577.69 118.80" xmlns="http://www.w3.org/2000/svg" xmlns:xlink="http://www.w3.org/1999/xlink">
<g id="graph0" class="graph" transform="scale(1 1) rotate(0) translate(14.4 104.4)">
<title>G</title>
<!-- s -->
<g id="node1" class="node">
<title>s</title>
<path fill="none" stroke="black" d="M74,-63C74,-63 12,-63 12,-63 6,-63 0,-57 0,-51 0,-51 0,-39 0,-39 0,-33 6,-27 12,-27 12,-27 74,-27 74,-27 80,-27 86,-33 86,-39 86,-39 86,-51 86,-51 86,-57 80,-63 74,-63"/>
<text text-anchor="middle" x="43" y="-41.3" font-family="Arial" font-size="14.00">student:s07</text>
</g>
<!-- d -->
<g id="node2" class="node">
<title>d</title>
<path fill="none" stroke="black" d="M295,-90C295,-90 244,-90 244,-90 238,-90 232,-84 232,-78 232,-78 232,-66 232,-66 232,-60 238,-54 244,-54 244,-54 295,-54 295,-54 301,-54 307,-60 307,-66 307,-66 307,-78 307,-78 307,-84 301,-90 295,-90"/>
<text text-anchor="middle" x="269.5" y="-68.3" font-family="Arial" font-size="14.00">degree:AI</text>
</g>
<!-- s&#45;&gt;d -->
<g id="edge1" class="edge">
<title>s&#45;&gt;d</title>
<path fill="none" stroke="black" d="M86.23,-50.08C124.79,-54.72 181.7,-61.56 221.65,-66.36"/>
<polygon fill="black" stroke="black" points="221.32,-69.85 231.67,-67.57 222.16,-62.9 221.32,-69.85"/>
<text text-anchor="middle" x="157" y="-67.8" font-family="Arial" font-size="14.00">ex:studiesDegree</text>
</g>
<!-- c -->
<g id="node3" class="node">
<title>c</title>
<path fill="none" stroke="black" d="M299,-36C299,-36 240,-36 240,-36 234,-36 228,-30 228,-24 228,-24 228,-12 228,-12 228,-6 234,0 240,0 240,0 299,0 299,0 305,0 311,-6 311,-12 311,-12 311,-24 311,-24 311,-30 305,-36 299,-36"/>
<text text-anchor="middle" x="269.5" y="-14.3" font-family="Arial" font-size="14.00">course:c06</text>
</g>
<!-- s&#45;&gt;c -->
<g id="edge2" class="edge">
<title>s&#45;&gt;c</title>
<path fill="none" stroke="black" d="M86.19,-35.98C92.15,-34.87 98.22,-33.84 104,-33 141.9,-27.5 185.02,-23.65 217.61,-21.24"/>
<polygon fill="black" stroke="black" points="218.07,-24.71 227.8,-20.5 217.57,-17.73 218.07,-24.71"/>
<text text-anchor="middle" x="157" y="-36.8" font-family="Arial" font-size="14.00">ex:enrolledIn</text>
</g>
<!-- label -->
<g id="node4" class="node">
<title>label</title>
<ellipse fill="none" stroke="black" cx="475.44" cy="-18" rx="73.39" ry="18"/>
<text text-anchor="middle" x="475.44" y="-14.3" font-family="Arial" font-size="14.00">Web Semántica</text>
</g>
<!-- c&#45;&gt;label -->
<g id="edge3" class="edge">
<title>c&#45;&gt;label</title>
<path fill="none" stroke="black" d="M311.28,-18C334.37,-18 364.09,-18 391.84,-18"/>
<polygon fill="black" stroke="black" points="391.95,-21.5 401.95,-18 391.95,-14.5 391.95,-21.5"/>
<text text-anchor="middle" x="356.5" y="-21.8" font-family="Arial" font-size="14.00">rdfs:label</text>
</g>
</g>
</svg>
