<?xml version="1.0" encoding="UTF-8" standalone="no"?>
<!DOCTYPE svg PUBLIC "-//W3C//DTD SVG 1.1//EN"
 "http://www.w3.org/Graphics/SVG/1.1/DTD/svg11.dtd">
<!-- Generated by graphviz version 2.42.4 (0)
 -->
<!-- Title: G Pages: 1 -->
<svg width="494pt" height="119pt"
 viewBox="0.00 0.00 494.28 118.80" xmlns="http://www.w3.org/2000/svg" xmlns:xlink="http://www.w3.org/1999/xlink">
<g id="graph0" class="graph" transform="scale(1 1) rotate(0) translate(14.4 104.4)">
<title>G</title>
<!-- s -->
<g id="node1" class="node">
<title>s</title>
<path fill="none" stroke="black" d="M74,-63C74,-63 12,-63 12,-63 6,-63 0,-57 0,-51 0,-51 0,-39 0,-39 0,-33 6,-27 12,-27 12,-27 74,-27 74,-27 80,-27 86,-33 86,-39 86,-39 86,-51 86,-51 86,-57 80,-63 74,-63"/>
<text text-anchor="middle" x="43" y="-41.3" font-family="Arial" font-size="14.00">student:s03</text>
</g>
<!-- b -->
<g id="node2" class="node">
<title>b</title>
<ellipse fill="none" stroke="black" cx="216.95" cy="-45" rx="27.9" ry="18"/>
<text text-anchor="middle" x="216.95" y="-41.3" font-family="Arial" font-size="14.00">_:b1</text>
</g>
<!-- s&#45;&gt;b -->
<g id="edge1" class="edge">
<title>s&#45;&gt;b</title>
<path fill="none" stroke="black" d="M86.06,-45C114.33,-45 151.24,-45 178.49,-45"/>
<polygon fill="black" stroke="black" points="178.79,-48.5 188.79,-45 178.79,-41.5 178.79,-48.5"/>
<text text-anchor="middle" x="137.5" y="-48.8" font-family="Arial" font-size="14.00">ex:address</text>
</g>
<!-- city -->
<g id="node3" class="node">
<title>city</title>
<ellipse fill="none" stroke="black" cx="399.19" cy="-72" rx="44.69" ry="18"/>
<text text-anchor="middle" x="399.19" y="-68.3" font-family="Arial" font-size="14.00">Ourense</text>
</g>
<!-- b&#45;&gt;city -->
<g id="edge2" class="edge">
<title>b&#45;&gt;city</title>
<path fill="none" stroke="black" d="M244.54,-48.98C271.34,-53 313.39,-59.3 346.73,-64.29"/>
<polygon fill="black" stroke="black" points="346.37,-67.78 356.77,-65.8 347.4,-60.85 346.37,-67.78"/>
<text text-anchor="middle" x="288.9" y="-62.8" font-family="Arial" font-size="14.00">ex:city</text>
</g>
<!-- street -->
<g id="node4" class="node">
<title>street</title>
<ellipse fill="none" stroke="black" cx="399.19" cy="-18" rx="66.09" ry="18"/>
<text text-anchor="middle" x="399.19" y="-14.3" font-family="Arial" font-size="14.00">Rúa do Paseo</text>
</g>
<!-- b&#45;&gt;street -->
<g id="edge3" class="edge">
<title>b&#45;&gt;street</title>
<path fill="none" stroke="black" d="M242.52,-37.72C249.1,-35.97 256.23,-34.25 262.9,-33 282.96,-29.23 304.9,-26.3 325.15,-24.06"/>
<polygon fill="black" stroke="black" points="325.68,-27.53 335.25,-22.99 324.94,-20.57 325.68,-27.53"/>
<text text-anchor="middle" x="288.9" y="-36.8" font-family="Arial" font-size="14.00">ex:street</text>
</g>
</g>
</svg>
