<?xml version="1.0" encoding="UTF-8" standalone="no"?>
<!DOCTYPE svg PUBLIC "-//W3C//DTD SVG 1.1//EN"
 "http://www.w3.org/Graphics/SVG/1.1/DTD/svg11.dtd">
<!-- Generated by graphviz version 2.42.4 (0)
 -->
<!-- Title: G Pages: 1 -->
<svg width="375pt" height="281pt"
 viewBox="0.00 0.00 374.69 280.80" xmlns="http://www.w3.org/2000/svg" xmlns:xlink="http://www.w3.org/1999/xlink">
<g id="graph0" class="graph" transform="scale(1 1) rotate(0) translate(14.4 266.4)">
<title>G</title>
<!-- Web -->
<g id="node1" class="node">
<title>Web</title>
<path fill="none" stroke="black" d="M71,-144C71,-144 12,-144 12,-144 6,-144 0,-138 0,-132 0,-132 0,-120 0,-120 0,-114 6,-108 12,-108 12,-108 71,-108 71,-108 77,-108 83,-114 83,-120 83,-120 83,-132 83,-132 83,-138 77,-144 71,-144"/>
<text text-anchor="middle" x="41.5" y="-122.3" font-family="Arial" font-size="14.00">course:c01</text>
</g>
<!-- Course -->
<g id="node2" class="node">
<title>Course</title>
<path fill="none" stroke="black" d="M299.44,-252C299.44,-252 245.44,-252 245.44,-252 239.44,-252 233.44,-246 233.44,-240 233.44,-240 233.44,-228 233.44,-228 233.44,-222 239.44,-216 245.44,-216 245.44,-216 299.44,-216 299.44,-216 305.44,-216 311.44,-222 311.44,-228 311.44,-228 311.44,-240 311.44,-240 311.44,-246 305.44,-252 299.44,-252"/>
<text text-anchor="middle" x="272.44" y="-230.3" font-family="Arial" font-size="14.00">ex:Course</text>
</g>
<!-- Web&#45;&gt;Course -->
<g id="edge1" class="edge">
<title>Web&#45;&gt;Course</title>
<path fill="none" stroke="black" d="M69.29,-144.03C81.95,-152.17 97.46,-161.6 112,-169 148.46,-187.55 191.5,-204.84 223.67,-216.92"/>
<polygon fill="black" stroke="black" points="222.69,-220.29 233.28,-220.49 225.13,-213.73 222.69,-220.29"/>
<text text-anchor="middle" x="141" y="-197.8" font-family="Arial" font-size="14.00">rdf:type</text>
</g>
<!-- Credits -->
<g id="node3" class="node">
<title>Credits</title>
<ellipse fill="none" stroke="black" cx="272.44" cy="-162" rx="27" ry="18"/>
<text text-anchor="middle" x="272.44" y="-158.3" font-family="Arial" font-size="14.00">6</text>
</g>
<!-- Web&#45;&gt;Credits -->
<g id="edge2" class="edge">
<title>Web&#45;&gt;Credits</title>
<path fill="none" stroke="black" d="M83.17,-132.39C126.64,-139.23 194.87,-149.96 236.16,-156.45"/>
<polygon fill="black" stroke="black" points="235.62,-159.91 246.04,-158.01 236.71,-152.99 235.62,-159.91"/>
<text text-anchor="middle" x="141" y="-148.8" font-family="Arial" font-size="14.00">ex:credits</text>
</g>
<!-- Year -->
<g id="node4" class="node">
<title>Year</title>
<ellipse fill="none" stroke="black" cx="272.44" cy="-90" rx="27" ry="18"/>
<text text-anchor="middle" x="272.44" y="-86.3" font-family="Arial" font-size="14.00">4</text>
</g>
<!-- Web&#45;&gt;Year -->
<g id="edge3" class="edge">
<title>Web&#45;&gt;Year</title>
<path fill="none" stroke="black" d="M83.24,-118.09C92.67,-116.34 102.68,-114.54 112,-113 154.27,-106 203.04,-99.14 235.4,-94.76"/>
<polygon fill="black" stroke="black" points="236.27,-98.18 245.71,-93.38 235.33,-91.24 236.27,-98.18"/>
<text text-anchor="middle" x="141" y="-116.8" font-family="Arial" font-size="14.00">ex:year</text>
</g>
<!-- Label -->
<g id="node5" class="node">
<title>Label</title>
<ellipse fill="none" stroke="black" cx="272.44" cy="-18" rx="73.39" ry="18"/>
<text text-anchor="middle" x="272.44" y="-14.3" font-family="Arial" font-size="14.00">Web Semántica</text>
</g>
<!-- Web&#45;&gt;Label -->
<g id="edge4" class="edge">
<title>Web&#45;&gt;Label</title>
<path fill="none" stroke="black" d="M67.13,-107.83C80.08,-98.77 96.45,-88.05 112,-80 146.06,-62.36 186.33,-46.74 217.88,-35.59"/>
<polygon fill="black" stroke="black" points="219.09,-38.88 227.37,-32.28 216.78,-32.27 219.09,-38.88"/>
<text text-anchor="middle" x="141" y="-83.8" font-family="Arial" font-size="14.00">rdfs:label</text>
</g>
</g>
</svg>
