<?xml version="1.0" encoding="UTF-8" standalone="no"?>
<!DOCTYPE svg PUBLIC "-//W3C//DTD SVG 1.1//EN"
 "http://www.w3.org/Graphics/SVG/1.1/DTD/svg11.dtd">
<!-- Generated by graphviz version 2.43.0 (0)
 -->
<!-- Title: B7wC Pages: 1 -->
<svg width="295pt" height="304pt"
 viewBox="0.00 0.00 294.60 303.60" xmlns="http://www.w3.org/2000/svg" xmlns:xlink="http://www.w3.org/1999/xlink">
<g id="graph0" class="graph" transform="scale(1 1) rotate(0) translate(10.8 292.8)">
<title>B7wC</title>
<g id="clust1" class="cluster">
<title>cluster_a</title>
<polygon fill="transparent" stroke="#9cb7dd" points="14,-8 14,-137 265,-137 265,-8 14,-8"/>
<text text-anchor="middle" x="139.5" y="-121.8" font-family="Times,serif" font-size="14.00">Modelo A</text>
</g>
<g id="clust2" class="cluster">
<title>cluster_b</title>
<polygon fill="transparent" stroke="#9cb7dd" points="8,-145 8,-274 265,-274 265,-145 8,-145"/>
<text text-anchor="middle" x="136.5" y="-258.8" font-family="Times,serif" font-size="14.00">Modelo B</text>
</g>
<!-- ana1 -->
<g id="node1" class="node">
<title>ana1</title>
<path fill="#e8f1ff" stroke="#3d6fb6" d="M69,-81C69,-81 34,-81 34,-81 28,-81 22,-75 22,-69 22,-69 22,-57 22,-57 22,-51 28,-45 34,-45 34,-45 69,-45 69,-45 75,-45 81,-51 81,-57 81,-57 81,-69 81,-69 81,-75 75,-81 69,-81"/>
<text text-anchor="middle" x="51.5" y="-59.3" font-family="Arial" font-size="14.00">ex:Ana</text>
</g>
<!-- c01 -->
<g id="node2" class="node">
<title>c01</title>
<path fill="#e8f1ff" stroke="#3d6fb6" d="M245,-52C245,-52 213,-52 213,-52 207,-52 201,-46 201,-40 201,-40 201,-28 201,-28 201,-22 207,-16 213,-16 213,-16 245,-16 245,-16 251,-16 257,-22 257,-28 257,-28 257,-40 257,-40 257,-46 251,-52 245,-52"/>
<text text-anchor="middle" x="229" y="-30.3" font-family="Arial" font-size="14.00">ex:c01</text>
</g>
<!-- ana1&#45;&gt;c01 -->
<g id="edge1" class="edge">
<title>ana1&#45;&gt;c01</title>
<path fill="none" stroke="#4c6078" d="M81.05,-56.69C88.8,-55.06 97.21,-53.39 105,-52 133.63,-46.91 166.2,-42.19 190.63,-38.86"/>
<polygon fill="#4c6078" stroke="#4c6078" points="191.12,-42.33 200.56,-37.53 190.19,-35.39 191.12,-42.33"/>
<text text-anchor="middle" x="144" y="-55.8" font-family="Arial" font-size="14.00">ex:enrolledIn</text>
</g>
<!-- c02a -->
<g id="node3" class="node">
<title>c02a</title>
<path fill="#e8f1ff" stroke="#3d6fb6" d="M245,-106C245,-106 213,-106 213,-106 207,-106 201,-100 201,-94 201,-94 201,-82 201,-82 201,-76 207,-70 213,-70 213,-70 245,-70 245,-70 251,-70 257,-76 257,-82 257,-82 257,-94 257,-94 257,-100 251,-106 245,-106"/>
<text text-anchor="middle" x="229" y="-84.3" font-family="Arial" font-size="14.00">ex:c02</text>
</g>
<!-- ana1&#45;&gt;c02a -->
<g id="edge2" class="edge">
<title>ana1&#45;&gt;c02a</title>
<path fill="none" stroke="#4c6078" d="M81.09,-67.07C110.97,-71.33 158,-78.03 190.77,-82.7"/>
<polygon fill="#4c6078" stroke="#4c6078" points="190.47,-86.19 200.87,-84.13 191.46,-79.26 190.47,-86.19"/>
<text text-anchor="middle" x="144" y="-84.8" font-family="Arial" font-size="14.00">ex:enrolledIn</text>
</g>
<!-- ana2 -->
<g id="node4" class="node">
<title>ana2</title>
<path fill="#e8f1ff" stroke="#3d6fb6" d="M69,-243C69,-243 34,-243 34,-243 28,-243 22,-237 22,-231 22,-231 22,-219 22,-219 22,-213 28,-207 34,-207 34,-207 69,-207 69,-207 75,-207 81,-213 81,-219 81,-219 81,-231 81,-231 81,-237 75,-243 69,-243"/>
<text text-anchor="middle" x="51.5" y="-221.3" font-family="Arial" font-size="14.00">ex:Ana</text>
</g>
<!-- c02b -->
<g id="node5" class="node">
<title>c02b</title>
<path fill="#e8f1ff" stroke="#3d6fb6" d="M245,-243C245,-243 213,-243 213,-243 207,-243 201,-237 201,-231 201,-231 201,-219 201,-219 201,-213 207,-207 213,-207 213,-207 245,-207 245,-207 251,-207 257,-213 257,-219 257,-219 257,-231 257,-231 257,-237 251,-243 245,-243"/>
<text text-anchor="middle" x="229" y="-221.3" font-family="Arial" font-size="14.00">ex:c02</text>
</g>
<!-- ana2&#45;&gt;c02b -->
<g id="edge3" class="edge">
<title>ana2&#45;&gt;c02b</title>
<path fill="none" stroke="#4c6078" d="M81.09,-225C110.97,-225 158,-225 190.77,-225"/>
<polygon fill="#4c6078" stroke="#4c6078" points="190.87,-228.5 200.87,-225 190.87,-221.5 190.87,-228.5"/>
<text text-anchor="middle" x="144" y="-228.8" font-family="Arial" font-size="14.00">ex:enrolledIn</text>
</g>
<!-- bruno -->
<g id="node6" class="node">
<title>bruno</title>
<path fill="#e8f1ff" stroke="#3d6fb6" d="M75,-189C75,-189 28,-189 28,-189 22,-189 16,-183 16,-177 16,-177 16,-165 16,-165 16,-159 22,-153 28,-153 28,-153 75,-153 75,-153 81,-153 87,-159 87,-165 87,-165 87,-177 87,-177 87,-183 81,-189 75,-189"/>
<text text-anchor="middle" x="51.5" y="-167.3" font-family="Arial" font-size="14.00">ex:Bruno</text>
</g>
<!-- c03 -->
<g id="node7" class="node">
<title>c03</title>
<path fill="#e8f1ff" stroke="#3d6fb6" d="M245,-189C245,-189 213,-189 213,-189 207,-189 201,-183 201,-177 201,-177 201,-165 201,-165 201,-159 207,-153 213,-153 213,-153 245,-153 245,-153 251,-153 257,-159 257,-165 257,-165 257,-177 257,-177 257,-183 251,-189 245,-189"/>
<text text-anchor="middle" x="229" y="-167.3" font-family="Arial" font-size="14.00">ex:c03</text>
</g>
<!-- bruno&#45;&gt;c03 -->
<g id="edge4" class="edge">
<title>bruno&#45;&gt;c03</title>
<path fill="none" stroke="#4c6078" d="M87.17,-171C117.02,-171 159.99,-171 190.6,-171"/>
<polygon fill="#4c6078" stroke="#4c6078" points="190.87,-174.5 200.87,-171 190.87,-167.5 190.87,-174.5"/>
<text text-anchor="middle" x="144" y="-174.8" font-family="Arial" font-size="14.00">ex:enrolledIn</text>
</g>
</g>
</svg>
