<?xml version="1.0" encoding="UTF-8" standalone="no"?>
<!DOCTYPE svg PUBLIC "-//W3C//DTD SVG 1.1//EN"
 "http://www.w3.org/Graphics/SVG/1.1/DTD/svg11.dtd">
<!-- Generated by graphviz version 2.42.4 (0)
 -->
<!-- Title: p4Tx Pages: 1 -->
<svg width="462pt" height="44pt"
 viewBox="0.00 0.00 461.78 44.00" xmlns="http://www.w3.org/2000/svg" xmlns:xlink="http://www.w3.org/1999/xlink">
<g id="graph0" class="graph" transform="scale(1 1) rotate(0) translate(4 40)">
<title>p4Tx</title>
<polygon fill="white" stroke="transparent" points="-4,4 -4,-40 457.78,-40 457.78,4 -4,4"/>
<!-- Ana -->
<g id="node1" class="node">
<title>Ana</title>
<ellipse fill="none" stroke="black" cx="42.25" cy="-18" rx="42.49" ry="18"/>
<text text-anchor="middle" x="42.25" y="-14.3" font-family="Times,serif" font-size="14.00">ex:Ana</text>
</g>
<!-- Luis -->
<g id="node2" class="node">
<title>Luis</title>
<ellipse fill="none" stroke="black" cx="231.69" cy="-18" rx="44.39" ry="18"/>
<text text-anchor="middle" x="231.69" y="-14.3" font-family="Times,serif" font-size="14.00">ex:Luis</text>
</g>
<!-- Ana&#45;&gt;Luis -->
<g id="edge1" class="edge">
<title>Ana&#45;&gt;Luis</title>
<path fill="none" stroke="black" d="M84.85,-18C112.05,-18 147.85,-18 177.17,-18"/>
<polygon fill="black" stroke="black" points="177.25,-21.5 187.25,-18 177.25,-14.5 177.25,-21.5"/>
<text text-anchor="middle" x="135.99" y="-21.8" font-family="Times,serif" font-size="14.00">ex:knows</text>
</g>
<!-- AI -->
<g id="node3" class="node">
<title>AI</title>
<ellipse fill="none" stroke="black" cx="419.33" cy="-18" rx="34.39" ry="18"/>
<text text-anchor="middle" x="419.33" y="-14.3" font-family="Times,serif" font-size="14.00">ex:AI</text>
</g>
<!-- Luis&#45;&gt;AI -->
<g id="edge2" class="edge">
<title>Luis&#45;&gt;AI</title>
<path fill="none" stroke="black" d="M276.21,-18C305.84,-18 344.9,-18 374.57,-18"/>
<polygon fill="black" stroke="black" points="374.64,-21.5 384.64,-18 374.64,-14.5 374.64,-21.5"/>
<text text-anchor="middle" x="330.38" y="-21.8" font-family="Times,serif" font-size="14.00">ex:studies</text>
</g>
</g>
</svg>
