<?xml version="1.0" encoding="UTF-8" standalone="no"?>
<!DOCTYPE svg PUBLIC "-//W3C//DTD SVG 1.1//EN"
 "http://www.w3.org/Graphics/SVG/1.1/DTD/svg11.dtd">
<!-- Generated by graphviz version 2.42.4 (0)
 -->
<!-- Title: G Pages: 1 -->
<svg width="372pt" height="141pt"
 viewBox="0.00 0.00 371.69 140.80" xmlns="http://www.w3.org/2000/svg" xmlns:xlink="http://www.w3.org/1999/xlink">
<g id="graph0" class="graph" transform="scale(1 1) rotate(0) translate(14.4 126.4)">
<title>G</title>
<!-- c -->
<g id="node1" class="node">
<title>c</title>
<path fill="none" stroke="black" d="M71,-74C71,-74 12,-74 12,-74 6,-74 0,-68 0,-62 0,-62 0,-50 0,-50 0,-44 6,-38 12,-38 12,-38 71,-38 71,-38 77,-38 83,-44 83,-50 83,-50 83,-62 83,-62 83,-68 77,-74 71,-74"/>
<text text-anchor="middle" x="41.5" y="-52.3" font-family="Arial" font-size="14.00">course:c02</text>
</g>
<!-- cls -->
<g id="node2" class="node">
<title>cls</title>
<path fill="none" stroke="black" d="M296.44,-112C296.44,-112 242.44,-112 242.44,-112 236.44,-112 230.44,-106 230.44,-100 230.44,-100 230.44,-88 230.44,-88 230.44,-82 236.44,-76 242.44,-76 242.44,-76 296.44,-76 296.44,-76 302.44,-76 308.44,-82 308.44,-88 308.44,-88 308.44,-100 308.44,-100 308.44,-106 302.44,-112 296.44,-112"/>
<text text-anchor="middle" x="269.44" y="-90.3" font-family="Arial" font-size="14.00">ex:Course</text>
</g>
<!-- c&#45;&gt;cls -->
<g id="edge1" class="edge">
<title>c&#45;&gt;cls</title>
<path fill="none" stroke="black" d="M83.16,-62.84C121.69,-69.32 179.59,-79.06 220.39,-85.92"/>
<polygon fill="black" stroke="black" points="219.93,-89.39 230.37,-87.6 221.09,-82.49 219.93,-89.39"/>
<text text-anchor="middle" x="139.5" y="-79.8" font-family="Arial" font-size="14.00">rdf:type</text>
</g>
<!-- label -->
<g id="node3" class="node">
<title>label</title>
<ellipse fill="none" stroke="black" cx="269.44" cy="-18" rx="73.39" ry="18"/>
<text text-anchor="middle" x="269.44" y="-14.3" font-family="Arial" font-size="14.00">Web Semántica</text>
</g>
<!-- c&#45;&gt;label -->
<g id="edge2" class="edge">
<title>c&#45;&gt;label</title>
<path fill="none" stroke="black" d="M83.26,-48.19C92.69,-46.43 102.69,-44.61 112,-43 139.64,-38.21 170.08,-33.27 196.7,-29.06"/>
<polygon fill="black" stroke="black" points="197.38,-32.49 206.71,-27.48 196.29,-25.58 197.38,-32.49"/>
<text text-anchor="middle" x="139.5" y="-46.8" font-family="Arial" font-size="14.00">rdfs:label</text>
</g>
</g>
</svg>
