<?xml version="1.0" encoding="UTF-8" standalone="no"?>
<!DOCTYPE svg PUBLIC "-//W3C//DTD SVG 1.1//EN"
 "http://www.w3.org/Graphics/SVG/1.1/DTD/svg11.dtd">
<!-- Generated by graphviz version 2.42.4 (0)
 -->
<!-- Title: IXMe Pages: 1 -->
<svg width="326pt" height="159pt"
 viewBox="3.60 3.60 322.20 155.60" xmlns="http://www.w3.org/2000/svg" xmlns:xlink="http://www.w3.org/1999/xlink">
<g id="graph0" class="graph" transform="scale(1 1) rotate(0) translate(7.6 151.6)">
<title>IXMe</title>
<!-- Ana -->
<g id="node1" class="node">
<title>Ana</title>
<ellipse fill="none" stroke="black" cx="40.01" cy="-72" rx="33.49" ry="18"/>
<text text-anchor="middle" x="40.01" y="-68.9" font-family="Arial" font-size="12.00">ex:Ana</text>
</g>
<!-- AI -->
<g id="node4" class="node">
<title>AI</title>
<ellipse fill="none" stroke="black" cx="255.81" cy="-45" rx="49.73" ry="18"/>
<text text-anchor="middle" x="255.81" y="-41.9" font-family="Arial" font-size="12.00">ex:degreeAI</text>
</g>
<!-- Ana&#45;&gt;AI -->
<g id="edge1" class="edge">
<title>Ana&#45;&gt;AI</title>
<path fill="none" stroke="black" d="M72.56,-68.02C105.65,-63.84 158.33,-57.18 198.57,-52.1"/>
<polygon fill="black" stroke="black" points="199.03,-55.57 208.51,-50.85 198.15,-48.63 199.03,-55.57"/>
<text text-anchor="middle" x="140.53" y="-68.2" font-family="Arial" font-size="11.00">ex:studiesDegree</text>
</g>
<!-- Diego -->
<g id="node2" class="node">
<title>Diego</title>
<ellipse fill="none" stroke="black" cx="40.01" cy="-18" rx="40.03" ry="18"/>
<text text-anchor="middle" x="40.01" y="-14.9" font-family="Arial" font-size="12.00">ex:Diego</text>
</g>
<!-- Diego&#45;&gt;AI -->
<g id="edge2" class="edge">
<title>Diego&#45;&gt;AI</title>
<path fill="none" stroke="black" d="M78.74,-22.76C111.84,-26.94 160.43,-33.08 198.18,-37.85"/>
<polygon fill="black" stroke="black" points="198.16,-41.37 208.52,-39.15 199.04,-34.43 198.16,-41.37"/>
<text text-anchor="middle" x="140.53" y="-39.2" font-family="Arial" font-size="11.00">ex:studiesDegree</text>
</g>
<!-- Lucia -->
<g id="node3" class="node">
<title>Lucia</title>
<ellipse fill="none" stroke="black" cx="40.01" cy="-126" rx="38.33" ry="18"/>
<text text-anchor="middle" x="40.01" y="-122.9" font-family="Arial" font-size="12.00">ex:Lucia</text>
</g>
<!-- INF -->
<g id="node5" class="node">
<title>INF</title>
<ellipse fill="none" stroke="black" cx="255.81" cy="-126" rx="54.58" ry="18"/>
<text text-anchor="middle" x="255.81" y="-122.9" font-family="Arial" font-size="12.00">ex:degreeINF</text>
</g>
<!-- Lucia&#45;&gt;INF -->
<g id="edge3" class="edge">
<title>Lucia&#45;&gt;INF</title>
<path fill="none" stroke="black" d="M78.25,-126C109.2,-126 153.95,-126 190.65,-126"/>
<polygon fill="black" stroke="black" points="190.77,-129.5 200.77,-126 190.77,-122.5 190.77,-129.5"/>
<text text-anchor="middle" x="140.53" y="-129.2" font-family="Arial" font-size="11.00">ex:studiesDegree</text>
</g>
</g>
</svg>
